<svg xmlns="http://www.w3.org/2000/svg" viewBox="0 0 1000 1100" width="1000" height="1100" style="background:#0a0e1a;font-family:Consolas,monospace">
<defs>
<radialGradient id="plasma_glow" cx="50%" cy="50%" r="50%">
<stop offset="0%" stop-color="#ff6b35" stop-opacity="0.9"/>
<stop offset="40%" stop-color="#ff4444" stop-opacity="0.6"/>
<stop offset="80%" stop-color="#8b0000" stop-opacity="0.3"/>
<stop offset="100%" stop-color="#0a0e1a" stop-opacity="0"/>
</radialGradient>
<radialGradient id="blanket_grad" cx="50%" cy="50%" r="50%">
<stop offset="0%" stop-color="#2a5a2a" stop-opacity="0.8"/>
<stop offset="100%" stop-color="#1a3a1a" stop-opacity="0.6"/>
</radialGradient>
<linearGradient id="coil_grad" x1="0%" y1="0%" x2="100%" y2="100%">
<stop offset="0%" stop-color="#1a4a8a"/>
<stop offset="50%" stop-color="#2a6acc"/>
<stop offset="100%" stop-color="#1a4a8a"/>
</linearGradient>
<linearGradient id="steel_grad" x1="0%" y1="0%" x2="100%" y2="0%">
<stop offset="0%" stop-color="#4a4a5a"/>
<stop offset="50%" stop-color="#6a6a7a"/>
<stop offset="100%" stop-color="#4a4a5a"/>
</linearGradient>
</defs>
<text x="500" y="35" text-anchor="middle" fill="#e0e0e0" font-size="22" font-weight="bold">ISOTROPIC FUSION REACTOR (IFR)</text>
<text x="500" y="58" text-anchor="middle" fill="#8ab4f8" font-size="14">Level 0 — Cross Section (Poloidal Plane)</text>
<ellipse cx="500" cy="520" rx="288.0" ry="192.0" fill="none" stroke="#3a3a4a" stroke-width="3" stroke-dasharray="8,4"/>
<text x="796.0" y="348.0" fill="#666" font-size="10">CRYOSTAT (R=12.0m)</text>
<path d="M 416.0 352.0 L 416.0 688.0 Q 752.0 708.0 752.0 520 Q 752.0 332.0 416.0 352.0 Z" fill="url(#coil_grad)" fill-opacity="0.3" stroke="#4488cc" stroke-width="2.5"/>
<rect x="404.0" y="393.04" width="12" height="12" fill="#2266aa" stroke="#5599dd" rx="2"/>
<rect x="741.5" y="393.04" width="12" height="12" fill="#2266aa" stroke="#5599dd" rx="2"/>
<rect x="404.0" y="446.8" width="12" height="12" fill="#2266aa" stroke="#5599dd" rx="2"/>
<rect x="743.5" y="446.8" width="12" height="12" fill="#2266aa" stroke="#5599dd" rx="2"/>
<rect x="404.0" y="514.0" width="12" height="12" fill="#2266aa" stroke="#5599dd" rx="2"/>
<rect x="746.0" y="514.0" width="12" height="12" fill="#2266aa" stroke="#5599dd" rx="2"/>
<rect x="404.0" y="581.2" width="12" height="12" fill="#2266aa" stroke="#5599dd" rx="2"/>
<rect x="748.5" y="581.2" width="12" height="12" fill="#2266aa" stroke="#5599dd" rx="2"/>
<rect x="404.0" y="634.96" width="12" height="12" fill="#2266aa" stroke="#5599dd" rx="2"/>
<rect x="750.5" y="634.96" width="12" height="12" fill="#2266aa" stroke="#5599dd" rx="2"/>
<text x="391.0" y="448.0" fill="#5599dd" font-size="11" text-anchor="end" transform="rotate(-90,391.0,520)">HTS REBCO TF COILS (B=12T)</text>
<ellipse cx="648.8" cy="520" rx="225.60000000000002" ry="110.4" fill="#3a3a4a" fill-opacity="0.4" stroke="#555" stroke-width="1.5"/>
<ellipse cx="648.8" cy="520" rx="216.0" ry="100.80000000000001" fill="url(#blanket_grad)" stroke="#4a8a4a" stroke-width="2"/>
<text x="648.8" y="411.2" text-anchor="middle" fill="#6aaa6a" font-size="10">TRITIUM BREEDING BLANKET (LiPb, 0.8m)</text>
<ellipse cx="648.8" cy="520" rx="49.199999999999996" ry="82.8" fill="none" stroke="#cc8844" stroke-width="2"/>
<ellipse cx="648.8" cy="520" rx="62.400000000000006" ry="106.08" fill="url(#plasma_glow)" opacity="0.4"/>
<ellipse cx="648.8" cy="520" rx="48.0" ry="81.6" fill="url(#plasma_glow)" opacity="0.7" stroke="#ff6b35" stroke-width="1"/>
<ellipse cx="648.8" cy="520" rx="19.200000000000003" ry="32.64" fill="#ffaa33" opacity="0.6"/>
<ellipse cx="648.8" cy="520" rx="7.199999999999999" ry="12.239999999999998" fill="#ffffff" opacity="0.4"/>
<path d="M 612.8 606.4 Q 648.8 625.6 684.8 606.4" fill="none" stroke="#cc6633" stroke-width="3"/>
<text x="689.8" y="611.4" fill="#cc8844" font-size="10">SUPER-X DIVERTOR</text>
<rect x="425.6" y="376.0" width="19.200000000000003" height="288.0" fill="#553388" fill-opacity="0.6" stroke="#7755aa" stroke-width="2" rx="4"/>
<text x="435.20000000000005" y="520" text-anchor="middle" fill="#9977cc" font-size="9" transform="rotate(-90,435.20000000000005,520)">CENTRAL SOLENOID</text>
<line x1="500" y1="742.0" x2="648.8" y2="742.0" stroke="#888" stroke-width="1" marker-end="url(#arrowhead)"/>
<line x1="500" y1="737.0" x2="500" y2="747.0" stroke="#888"/>
<line x1="648.8" y1="737.0" x2="648.8" y2="747.0" stroke="#888"/>
<text x="574.4" y="737.0" text-anchor="middle" fill="#aaa" font-size="11">R = 6.2m</text>
<text x="15" y="80" fill="#e0e0e0" font-size="12" font-weight="bold">PLASMA PARAMETERS</text>
<text x="23" y="100" fill="#ff8866" font-size="11">T = 17.8 keV (206 MK)</text>
<text x="23" y="116" fill="#ff8866" font-size="11">n = 2.7×10²⁰ m⁻³</text>
<text x="23" y="132" fill="#5599dd" font-size="11">B = 12.0T (toroidal)</text>
<text x="23" y="148" fill="#5599dd" font-size="11">I_p = 34.0 MA</text>
<text x="23" y="164" fill="#ff8866" font-size="11">τ_E = 1.103 s</text>
<text x="23" y="180" fill="#aaa" font-size="11">V = 830 m³</text>
<text x="15" y="204" fill="#e0e0e0" font-size="12" font-weight="bold">POWER</text>
<text x="23" y="224" fill="#ffcc44" font-size="11">P_fusion = 15,594 MW</text>
<text x="23" y="240" fill="#44cc44" font-size="11">P_electric = 5,146 MW</text>
<text x="23" y="256" fill="#44cc44" font-size="11">Q = ∞ (self-ignited)</text>
<text x="15" y="280" fill="#e0e0e0" font-size="12" font-weight="bold">COMPOSITION</text>
<text x="23" y="300" fill="#ff6b35" font-size="11">Alpha:  50.2%  ████████████████</text>
<text x="23" y="316" fill="#5599dd" font-size="11">Cyclo:  32.5%  ██████████</text>
<text x="23" y="332" fill="#aaaaaa" font-size="11">Cond:   14.0%  ████</text>
<text x="23" y="348" fill="#44aa44" font-size="11">Brem:    3.3%  █</text>
<text x="15" y="372" fill="#e0e0e0" font-size="12" font-weight="bold">ENGINEERING</text>
<text x="23" y="392" fill="#5599dd" font-size="11">Magnets: HTS REBCO</text>
<text x="23" y="408" fill="#6aaa6a" font-size="11">Blanket: lithium-lead (LiPb)</text>
<text x="23" y="424" fill="#aaa" font-size="11">Structure: EUROFER reduced-activation steel</text>
<text x="23" y="440" fill="#cc8844" font-size="11">Divertor: tungsten super-X</text>
<line x1="440.0" y1="1070" x2="560.0" y2="1070" stroke="#888" stroke-width="2"/>
<line x1="440.0" y1="1065" x2="440.0" y2="1075" stroke="#888"/>
<line x1="560.0" y1="1065" x2="560.0" y2="1075" stroke="#888"/>
<text x="500" y="1088" text-anchor="middle" fill="#888" font-size="11">5 metres</text>
<text x="500" y="1092" text-anchor="middle" fill="#555" font-size="10">EXP-06K — HUF Programme — Peter Higgins / Claude (Anthropic)</text>
</svg>