<svg xmlns="http://www.w3.org/2000/svg" viewBox="0 0 1200 1100" width="1200" height="1100" style="background:#0a0e1a;font-family:Consolas,monospace">
<text x="600" y="32" text-anchor="middle" fill="#e0e0e0" font-size="22" font-weight="bold">KRELL LEVEL 1 POWER PLANT</text>
<text x="600" y="55" text-anchor="middle" fill="#8ab4f8" font-size="14">10 × IFR (Level 0) + 1 × Boosted (Level 1) — Site Plan</text>
<circle cx="600" cy="520" r="420" fill="none" stroke="#333" stroke-width="2" stroke-dasharray="12,6"/>
<text x="600" y="958" text-anchor="middle" fill="#555" font-size="11">SITE BOUNDARY — 1.2 km diameter</text>
<circle cx="600" cy="520" r="70" fill="#1a0a0a" stroke="#661111" stroke-width="2"/>
<circle cx="600" cy="520" r="55" fill="#330000" stroke="#aa3333" stroke-width="3"/>
<circle cx="600" cy="520" r="33.0" fill="#ff4444" opacity="0.3"/>
<circle cx="600" cy="520" r="16.5" fill="#ffaa44" opacity="0.5"/>
<circle cx="600" cy="520" r="5.5" fill="#ffffff" opacity="0.4"/>
<text x="600" y="443" text-anchor="middle" fill="#ff6644" font-size="13" font-weight="bold">BOOSTED REACTOR</text>
<text x="600" y="457" text-anchor="middle" fill="#ff8866" font-size="11">B=30T  T=25 keV  n=8×10²⁰</text>
<text x="600" y="525" text-anchor="middle" fill="#ffcc88" font-size="14" font-weight="bold">211 GW</text>
<text x="600" y="538" text-anchor="middle" fill="#ffaa66" font-size="10">FUSION</text>
<circle cx="600.0" cy="320.0" r="43" fill="#0a0a1a" stroke="#224466" stroke-width="1.5"/>
<circle cx="600.0" cy="320.0" r="35" fill="#112244" stroke="#3366aa" stroke-width="2"/>
<circle cx="600.0" cy="320.0" r="17.5" fill="#ff6b35" opacity="0.3"/>
<circle cx="600.0" cy="320.0" r="7.0" fill="#ffaa55" opacity="0.5"/>
<text x="600.0" y="324.0" text-anchor="middle" fill="#88bbff" font-size="10" font-weight="bold">IFR-01</text>
<line x1="600.0" y1="320.0" x2="600" y2="520" stroke="#ff4444" stroke-width="1.5" stroke-dasharray="4,4" opacity="0.4"/>
<circle cx="600.0" cy="420.0" r="3" fill="#ff4444" opacity="0.6"/>
<circle cx="717.5570504584946" cy="358.1966011250105" r="43" fill="#0a0a1a" stroke="#224466" stroke-width="1.5"/>
<circle cx="717.5570504584946" cy="358.1966011250105" r="35" fill="#112244" stroke="#3366aa" stroke-width="2"/>
<circle cx="717.5570504584946" cy="358.1966011250105" r="17.5" fill="#ff6b35" opacity="0.3"/>
<circle cx="717.5570504584946" cy="358.1966011250105" r="7.0" fill="#ffaa55" opacity="0.5"/>
<text x="717.5570504584946" y="362.1966011250105" text-anchor="middle" fill="#88bbff" font-size="10" font-weight="bold">IFR-02</text>
<line x1="717.5570504584946" y1="358.1966011250105" x2="600" y2="520" stroke="#ff4444" stroke-width="1.5" stroke-dasharray="4,4" opacity="0.4"/>
<circle cx="658.7785252292473" cy="439.09830056250524" r="3" fill="#ff4444" opacity="0.6"/>
<circle cx="790.2113032590307" cy="458.19660112501055" r="43" fill="#0a0a1a" stroke="#224466" stroke-width="1.5"/>
<circle cx="790.2113032590307" cy="458.19660112501055" r="35" fill="#112244" stroke="#3366aa" stroke-width="2"/>
<circle cx="790.2113032590307" cy="458.19660112501055" r="17.5" fill="#ff6b35" opacity="0.3"/>
<circle cx="790.2113032590307" cy="458.19660112501055" r="7.0" fill="#ffaa55" opacity="0.5"/>
<text x="790.2113032590307" y="462.19660112501055" text-anchor="middle" fill="#88bbff" font-size="10" font-weight="bold">IFR-03</text>
<line x1="790.2113032590307" y1="458.19660112501055" x2="600" y2="520" stroke="#ff4444" stroke-width="1.5" stroke-dasharray="4,4" opacity="0.4"/>
<circle cx="695.1056516295154" cy="489.0983005625053" r="3" fill="#ff4444" opacity="0.6"/>
<circle cx="790.2113032590307" cy="581.8033988749895" r="43" fill="#0a0a1a" stroke="#224466" stroke-width="1.5"/>
<circle cx="790.2113032590307" cy="581.8033988749895" r="35" fill="#112244" stroke="#3366aa" stroke-width="2"/>
<circle cx="790.2113032590307" cy="581.8033988749895" r="17.5" fill="#ff6b35" opacity="0.3"/>
<circle cx="790.2113032590307" cy="581.8033988749895" r="7.0" fill="#ffaa55" opacity="0.5"/>
<text x="790.2113032590307" y="585.8033988749895" text-anchor="middle" fill="#88bbff" font-size="10" font-weight="bold">IFR-04</text>
<line x1="790.2113032590307" y1="581.8033988749895" x2="600" y2="520" stroke="#ff4444" stroke-width="1.5" stroke-dasharray="4,4" opacity="0.4"/>
<circle cx="695.1056516295154" cy="550.9016994374947" r="3" fill="#ff4444" opacity="0.6"/>
<circle cx="717.5570504584946" cy="681.8033988749895" r="43" fill="#0a0a1a" stroke="#224466" stroke-width="1.5"/>
<circle cx="717.5570504584946" cy="681.8033988749895" r="35" fill="#112244" stroke="#3366aa" stroke-width="2"/>
<circle cx="717.5570504584946" cy="681.8033988749895" r="17.5" fill="#ff6b35" opacity="0.3"/>
<circle cx="717.5570504584946" cy="681.8033988749895" r="7.0" fill="#ffaa55" opacity="0.5"/>
<text x="717.5570504584946" y="685.8033988749895" text-anchor="middle" fill="#88bbff" font-size="10" font-weight="bold">IFR-05</text>
<line x1="717.5570504584946" y1="681.8033988749895" x2="600" y2="520" stroke="#ff4444" stroke-width="1.5" stroke-dasharray="4,4" opacity="0.4"/>
<circle cx="658.7785252292473" cy="600.9016994374947" r="3" fill="#ff4444" opacity="0.6"/>
<circle cx="600.0" cy="720.0" r="43" fill="#0a0a1a" stroke="#224466" stroke-width="1.5"/>
<circle cx="600.0" cy="720.0" r="35" fill="#112244" stroke="#3366aa" stroke-width="2"/>
<circle cx="600.0" cy="720.0" r="17.5" fill="#ff6b35" opacity="0.3"/>
<circle cx="600.0" cy="720.0" r="7.0" fill="#ffaa55" opacity="0.5"/>
<text x="600.0" y="724.0" text-anchor="middle" fill="#88bbff" font-size="10" font-weight="bold">IFR-06</text>
<line x1="600.0" y1="720.0" x2="600" y2="520" stroke="#ff4444" stroke-width="1.5" stroke-dasharray="4,4" opacity="0.4"/>
<circle cx="600.0" cy="620.0" r="3" fill="#ff4444" opacity="0.6"/>
<circle cx="482.4429495415054" cy="681.8033988749895" r="43" fill="#0a0a1a" stroke="#224466" stroke-width="1.5"/>
<circle cx="482.4429495415054" cy="681.8033988749895" r="35" fill="#112244" stroke="#3366aa" stroke-width="2"/>
<circle cx="482.4429495415054" cy="681.8033988749895" r="17.5" fill="#ff6b35" opacity="0.3"/>
<circle cx="482.4429495415054" cy="681.8033988749895" r="7.0" fill="#ffaa55" opacity="0.5"/>
<text x="482.4429495415054" y="685.8033988749895" text-anchor="middle" fill="#88bbff" font-size="10" font-weight="bold">IFR-07</text>
<line x1="482.4429495415054" y1="681.8033988749895" x2="600" y2="520" stroke="#ff4444" stroke-width="1.5" stroke-dasharray="4,4" opacity="0.4"/>
<circle cx="541.2214747707527" cy="600.9016994374947" r="3" fill="#ff4444" opacity="0.6"/>
<circle cx="409.78869674096927" cy="581.8033988749895" r="43" fill="#0a0a1a" stroke="#224466" stroke-width="1.5"/>
<circle cx="409.78869674096927" cy="581.8033988749895" r="35" fill="#112244" stroke="#3366aa" stroke-width="2"/>
<circle cx="409.78869674096927" cy="581.8033988749895" r="17.5" fill="#ff6b35" opacity="0.3"/>
<circle cx="409.78869674096927" cy="581.8033988749895" r="7.0" fill="#ffaa55" opacity="0.5"/>
<text x="409.78869674096927" y="585.8033988749895" text-anchor="middle" fill="#88bbff" font-size="10" font-weight="bold">IFR-08</text>
<line x1="409.78869674096927" y1="581.8033988749895" x2="600" y2="520" stroke="#ff4444" stroke-width="1.5" stroke-dasharray="4,4" opacity="0.4"/>
<circle cx="504.89434837048464" cy="550.9016994374947" r="3" fill="#ff4444" opacity="0.6"/>
<circle cx="409.78869674096927" cy="458.19660112501055" r="43" fill="#0a0a1a" stroke="#224466" stroke-width="1.5"/>
<circle cx="409.78869674096927" cy="458.19660112501055" r="35" fill="#112244" stroke="#3366aa" stroke-width="2"/>
<circle cx="409.78869674096927" cy="458.19660112501055" r="17.5" fill="#ff6b35" opacity="0.3"/>
<circle cx="409.78869674096927" cy="458.19660112501055" r="7.0" fill="#ffaa55" opacity="0.5"/>
<text x="409.78869674096927" y="462.19660112501055" text-anchor="middle" fill="#88bbff" font-size="10" font-weight="bold">IFR-09</text>
<line x1="409.78869674096927" y1="458.19660112501055" x2="600" y2="520" stroke="#ff4444" stroke-width="1.5" stroke-dasharray="4,4" opacity="0.4"/>
<circle cx="504.89434837048464" cy="489.0983005625053" r="3" fill="#ff4444" opacity="0.6"/>
<circle cx="482.44294954150536" cy="358.19660112501055" r="43" fill="#0a0a1a" stroke="#224466" stroke-width="1.5"/>
<circle cx="482.44294954150536" cy="358.19660112501055" r="35" fill="#112244" stroke="#3366aa" stroke-width="2"/>
<circle cx="482.44294954150536" cy="358.19660112501055" r="17.5" fill="#ff6b35" opacity="0.3"/>
<circle cx="482.44294954150536" cy="358.19660112501055" r="7.0" fill="#ffaa55" opacity="0.5"/>
<text x="482.44294954150536" y="362.19660112501055" text-anchor="middle" fill="#88bbff" font-size="10" font-weight="bold">IFR-10</text>
<line x1="482.44294954150536" y1="358.19660112501055" x2="600" y2="520" stroke="#ff4444" stroke-width="1.5" stroke-dasharray="4,4" opacity="0.4"/>
<circle cx="541.2214747707527" cy="439.0983005625053" r="3" fill="#ff4444" opacity="0.6"/>
<rect x="880" y="390" width="120" height="60" fill="#1a2a1a" stroke="#44aa44" stroke-width="2" rx="5"/>
<text x="940" y="418" text-anchor="middle" fill="#66cc66" font-size="10" font-weight="bold">MAIN TURBINE</text>
<text x="940" y="432" text-anchor="middle" fill="#44aa44" font-size="10">HALL</text>
<line x1="670" y1="520" x2="880" y2="420" stroke="#44aa44" stroke-width="2"/>
<ellipse cx="250" cy="720" rx="30" ry="20" fill="#1a1a2a" stroke="#4444aa" stroke-width="1.5"/>
<path d="M 225 735 Q 235 710 230 695 L 270 695 Q 265 710 275 735 Z" fill="#222233" stroke="#4444aa" stroke-width="1"/>
<text x="250" y="758" text-anchor="middle" fill="#6666aa" font-size="9">COOLING</text>
<ellipse cx="250" cy="820" rx="30" ry="20" fill="#1a1a2a" stroke="#4444aa" stroke-width="1.5"/>
<path d="M 225 835 Q 235 810 230 795 L 270 795 Q 265 810 275 835 Z" fill="#222233" stroke="#4444aa" stroke-width="1"/>
<ellipse cx="950" cy="720" rx="30" ry="20" fill="#1a1a2a" stroke="#4444aa" stroke-width="1.5"/>
<path d="M 925 735 Q 935 710 930 695 L 970 695 Q 965 710 975 735 Z" fill="#222233" stroke="#4444aa" stroke-width="1"/>
<ellipse cx="950" cy="820" rx="30" ry="20" fill="#1a1a2a" stroke="#4444aa" stroke-width="1.5"/>
<path d="M 925 835 Q 935 810 930 795 L 970 795 Q 965 810 975 835 Z" fill="#222233" stroke="#4444aa" stroke-width="1"/>
<rect x="890" y="595" width="100" height="50" fill="#2a2a1a" stroke="#aaaa44" stroke-width="2" rx="5"/>
<text x="940" y="618" text-anchor="middle" fill="#cccc66" font-size="10" font-weight="bold">SWITCHYARD</text>
<text x="940" y="632" text-anchor="middle" fill="#aaaa44" font-size="10">TO GRID</text>
<line x1="940" y1="450" x2="940" y2="595" stroke="#aaaa44" stroke-width="2"/>
<line x1="990" y1="605" x2="1060" y2="605" stroke="#aaaa44" stroke-width="2"/>
<line x1="990" y1="620" x2="1060" y2="620" stroke="#aaaa44" stroke-width="2"/>
<line x1="990" y1="635" x2="1060" y2="635" stroke="#aaaa44" stroke-width="2"/>
<text x="1075" y="625" fill="#cccc66" font-size="11" font-weight="bold">→ 67.9 GW NET</text>
<rect x="210" y="395" width="100" height="50" fill="#1a1a2a" stroke="#aa44aa" stroke-width="2" rx="5"/>
<text x="260" y="418" text-anchor="middle" fill="#cc66cc" font-size="10" font-weight="bold">TRITIUM</text>
<text x="260" y="432" text-anchor="middle" fill="#aa44aa" font-size="10">PROCESSING</text>
<rect x="210" y="595" width="100" height="50" fill="#1a2a2a" stroke="#44aaaa" stroke-width="2" rx="5"/>
<text x="260" y="618" text-anchor="middle" fill="#66cccc" font-size="10" font-weight="bold">CONTROL</text>
<text x="260" y="632" text-anchor="middle" fill="#44aaaa" font-size="10">CENTRE</text>
<rect x="540" y="840" width="120" height="40" fill="#2a1a1a" stroke="#aa6644" stroke-width="2" rx="5"/>
<text x="600" y="865" text-anchor="middle" fill="#cc8866" font-size="10" font-weight="bold">HOT CELL / REMOTE MAINTENANCE</text>
<rect x="30" y="830" width="280" height="225" fill="#0a0e1a" stroke="#333" stroke-width="1" rx="5"/>
<text x="40" y="850" fill="#e0e0e0" font-size="13" font-weight="bold">POWER FLOW</text>
<text x="45" y="870" fill="#5599dd" font-size="11" >10 × IFR fusion:</text>
<text x="240" y="870" fill="#5599dd" font-size="11"  text-anchor="end">155,940 MW</text>
<text x="45" y="886" fill="#44cc44" font-size="11" >10 × IFR electric:</text>
<text x="240" y="886" fill="#44cc44" font-size="11"  text-anchor="end">51,460 MW</text>
<text x="45" y="902" fill="#ff4444" font-size="11" >→ Driver to Boosted:</text>
<text x="240" y="902" fill="#ff4444" font-size="11"  text-anchor="end">51,461 MW</text>
<text x="45" y="918" fill="#ff8844" font-size="11" >Boosted fusion:</text>
<text x="240" y="918" fill="#ff8844" font-size="11"  text-anchor="end">211,783 MW</text>
<text x="45" y="934" fill="#ffcc44" font-size="11" >Boosted electric:</text>
<text x="240" y="934" fill="#ffcc44" font-size="11"  text-anchor="end">69,888 MW</text>
<text x="45" y="950" fill="#aa4444" font-size="11" >Plant parasitic:</text>
<text x="240" y="950" fill="#aa4444" font-size="11"  text-anchor="end">-2,000 MW</text>
<text x="45" y="971" fill="#44ff44" font-size="11" font-weight="bold">NET TO GRID:</text>
<text x="240" y="971" fill="#44ff44" font-size="11" font-weight="bold" text-anchor="end">67,887 MW</text>
<text x="45" y="987" fill="#44ff44" font-size="11" >  = 67.9 GW</text>
<text x="240" y="987" fill="#44ff44" font-size="11"  text-anchor="end"></text>
<text x="600" y="975" text-anchor="middle" fill="#555" font-size="10">Scale: site diameter = 1.2 km | Each IFR building ~30m diameter</text>
<text x="600" y="1092" text-anchor="middle" fill="#555" font-size="10">EXP-06K — HUF Programme — Peter Higgins / Claude (Anthropic)</text>
</svg>