<svg xmlns="http://www.w3.org/2000/svg" viewBox="0 0 760 700" width="760" height="700" style="background:#0a0e1a;font-family:Consolas,monospace">
<text x="380" y="25" text-anchor="middle" fill="#e0e0e0" font-size="18" font-weight="bold">COMPOSITION SPACE MAP</text>
<text x="380" y="45" text-anchor="middle" fill="#8ab4f8" font-size="12">Alpha% vs Cyclotron% — bubble size = Conduction%, colour = Tier</text>
<line x1="80" y1="100" x2="80" y2="600" stroke="#555" stroke-width="1.5"/>
<line x1="80" y1="600" x2="580" y2="600" stroke="#555" stroke-width="1.5"/>
<text x="80.0" y="618" text-anchor="middle" fill="#888" font-size="10">0%</text>
<line x1="80.0" y1="100" x2="80.0" y2="600" stroke="#222" stroke-width="0.5"/>
<text x="180.0" y="618" text-anchor="middle" fill="#888" font-size="10">20%</text>
<line x1="180.0" y1="100" x2="180.0" y2="600" stroke="#222" stroke-width="0.5"/>
<text x="280.0" y="618" text-anchor="middle" fill="#888" font-size="10">40%</text>
<line x1="280.0" y1="100" x2="280.0" y2="600" stroke="#222" stroke-width="0.5"/>
<text x="380.0" y="618" text-anchor="middle" fill="#888" font-size="10">60%</text>
<line x1="380.0" y1="100" x2="380.0" y2="600" stroke="#222" stroke-width="0.5"/>
<text x="480.0" y="618" text-anchor="middle" fill="#888" font-size="10">80%</text>
<line x1="480.0" y1="100" x2="480.0" y2="600" stroke="#222" stroke-width="0.5"/>
<text x="580.0" y="618" text-anchor="middle" fill="#888" font-size="10">100%</text>
<line x1="580.0" y1="100" x2="580.0" y2="600" stroke="#222" stroke-width="0.5"/>
<text x="330" y="638" text-anchor="middle" fill="#ff6b35" font-size="12">Alpha Channel (%)</text>
<text x="72" y="604.0" text-anchor="end" fill="#888" font-size="10">0%</text>
<line x1="80" y1="600.0" x2="580" y2="600.0" stroke="#222" stroke-width="0.5"/>
<text x="72" y="504.0" text-anchor="end" fill="#888" font-size="10">20%</text>
<line x1="80" y1="500.0" x2="580" y2="500.0" stroke="#222" stroke-width="0.5"/>
<text x="72" y="404.0" text-anchor="end" fill="#888" font-size="10">40%</text>
<line x1="80" y1="400.0" x2="580" y2="400.0" stroke="#222" stroke-width="0.5"/>
<text x="72" y="304.0" text-anchor="end" fill="#888" font-size="10">60%</text>
<line x1="80" y1="300.0" x2="580" y2="300.0" stroke="#222" stroke-width="0.5"/>
<text x="72" y="204.0" text-anchor="end" fill="#888" font-size="10">80%</text>
<line x1="80" y1="200.0" x2="580" y2="200.0" stroke="#222" stroke-width="0.5"/>
<text x="72" y="104.0" text-anchor="end" fill="#888" font-size="10">100%</text>
<line x1="80" y1="100.0" x2="580" y2="100.0" stroke="#222" stroke-width="0.5"/>
<text x="35" y="350" text-anchor="middle" fill="#4488cc" font-size="12" transform="rotate(-90,35,350)">Cyclotron Channel (%)</text>
<rect x="330.0" y="100" width="250.0" height="500" fill="#ff6b35" opacity="0.05"/>
<line x1="330.0" y1="100" x2="330.0" y2="600" stroke="#ff4444" stroke-width="1" stroke-dasharray="4,3" opacity="0.5"/>
<circle cx="331.0" cy="437.5" r="7.5" fill="#44cc44" opacity="0.6" stroke="#44cc44" stroke-width="1.5"/>
<text x="341.5" y="440.5" fill="#44cc44" font-size="8">IFR</text>
<circle cx="444.5" cy="586.0" r="9.1" fill="#44cc44" opacity="0.6" stroke="#44cc44" stroke-width="1.5"/>
<text x="456.6" y="589.0" fill="#44cc44" font-size="8">Spherical Toka..</text>
<circle cx="242.5" cy="569.5" r="17.3" fill="#4488cc" opacity="0.6" stroke="#4488cc" stroke-width="1.5"/>
<text x="262.8" y="572.5" fill="#4488cc" font-size="8">Conventional T..</text>
<circle cx="308.5" cy="459.5" r="9.5" fill="#4488cc" opacity="0.6" stroke="#4488cc" stroke-width="1.5"/>
<text x="321.0" y="462.5" fill="#4488cc" font-size="8">Compact HF Tok..</text>
<circle cx="192.5" cy="600.0" r="21.2" fill="#4488cc" opacity="0.6" stroke="#4488cc" stroke-width="1.5"/>
<text x="216.7" y="603.0" fill="#4488cc" font-size="8">Inertial Confi..</text>
<circle cx="227.0" cy="509.0" r="15.7" fill="#4488cc" opacity="0.6" stroke="#4488cc" stroke-width="1.5"/>
<text x="245.7" y="512.0" fill="#4488cc" font-size="8">Magnetic Mirror</text>
<circle cx="171.5" cy="537.5" r="18.8" fill="#666666" opacity="0.6" stroke="#666666" stroke-width="1.5"/>
<text x="193.2" y="540.5" fill="#666666" font-size="8">Stellarator</text>
<circle cx="121.0" cy="594.5" r="21.1" fill="#666666" opacity="0.6" stroke="#666666" stroke-width="1.5"/>
<text x="145.1" y="597.5" fill="#666666" font-size="8">FRC</text>
<circle cx="81.5" cy="599.0" r="25.0" fill="#666666" opacity="0.6" stroke="#666666" stroke-width="1.5"/>
<text x="109.5" y="602.0" fill="#666666" font-size="8">Spheromak</text>
<circle cx="86.0" cy="557.5" r="25.0" fill="#666666" opacity="0.6" stroke="#666666" stroke-width="1.5"/>
<text x="114.0" y="560.5" fill="#666666" font-size="8">Z-Pinch</text>
<circle cx="90.5" cy="543.5" r="24.1" fill="#666666" opacity="0.6" stroke="#666666" stroke-width="1.5"/>
<text x="117.6" y="546.5" fill="#666666" font-size="8">Magnetised Tar..</text>
<circle cx="156.0" cy="584.5" r="4.8" fill="#666666" opacity="0.6" stroke="#666666" stroke-width="1.5"/>
<text x="163.8" y="587.5" fill="#666666" font-size="8">Proton-Boron</text>
<circle cx="142.0" cy="522.0" r="16.6" fill="#666666" opacity="0.6" stroke="#666666" stroke-width="1.5"/>
<text x="161.6" y="525.0" fill="#666666" font-size="8">D-He3 Magnetic</text>
<circle cx="80.5" cy="600.0" r="6.5" fill="#666666" opacity="0.6" stroke="#666666" stroke-width="1.5"/>
<text x="90.0" y="603.0" fill="#666666" font-size="8">Muon-Catalysed</text>
<circle cx="84.0" cy="597.5" r="25.0" fill="#666666" opacity="0.6" stroke="#666666" stroke-width="1.5"/>
<text x="112.0" y="600.5" fill="#666666" font-size="8">Electrostatic</text>
<circle cx="371.5" cy="458.0" r="6.8" fill="#44cc44" opacity="0.6" stroke="#44cc44" stroke-width="1.5"/>
<text x="381.3" y="461.0" fill="#44cc44" font-size="8">Krell Level 1</text>
<circle cx="570.0" cy="600.0" r="4.5" fill="#ffcc44" opacity="0.6" stroke="#ffcc44" stroke-width="1.5"/>
<text x="577.5" y="603.0" fill="#ffcc44" font-size="8">Sun</text>
<circle cx="601" cy="110" r="6" fill="#ffcc44" opacity="0.6"/>
<text x="611" y="114" fill="#ffcc44" font-size="10">Natural</text>
<circle cx="601" cy="132" r="6" fill="#44cc44" opacity="0.6"/>
<text x="611" y="136" fill="#44cc44" font-size="10">Ignited</text>
<circle cx="601" cy="154" r="6" fill="#4488cc" opacity="0.6"/>
<text x="611" y="158" fill="#4488cc" font-size="10">Q&gt;1</text>
<circle cx="601" cy="176" r="6" fill="#666666" opacity="0.6"/>
<text x="611" y="180" fill="#666666" font-size="10">Blocked</text>
<text x="380" y="685" text-anchor="middle" fill="#555" font-size="10">EXP-08 — HUF Programme — Peter Higgins / Claude (Anthropic)</text>
</svg>