<svg xmlns="http://www.w3.org/2000/svg" viewBox="0 0 810 702" width="810" height="702" style="background:#0a0e1a;font-family:Consolas,monospace">
<text x="405" y="25" text-anchor="middle" fill="#e0e0e0" font-size="18" font-weight="bold">ENTROPY LADDER</text>
<text x="405" y="45" text-anchor="middle" fill="#8ab4f8" font-size="12">Shannon Entropy Ratio H/H_max — All Compositions Across All Scales</text>
<rect x="230" y="55" width="12" height="12" fill="#ff6b35" rx="2"/>
<text x="246" y="66" fill="#ff6b35" font-size="11">Fusion (4-channel)</text>
<rect x="390" y="55" width="12" height="12" fill="#cc44cc" rx="2"/>
<text x="406" y="66" fill="#cc44cc" font-size="11">Quark Scale</text>
<line x1="695.0" y1="80" x2="695.0" y2="652" stroke="#ffcc44" stroke-width="1.5" stroke-dasharray="6,3" opacity="0.6"/>
<text x="695.0" y="75" text-anchor="middle" fill="#ffcc44" font-size="9">93% UNIVERSAL BOUND</text>
<text x="222" y="95" text-anchor="end" fill="#cc88cc" font-size="10">QGP Composition</text>
<rect x="230" y="80" width="485.5" height="22" fill="#cc44cc" opacity="0.7" rx="2"/>
<text x="721.5" y="95" fill="#ccc" font-size="10">0.971</text>
<text x="222" y="121" text-anchor="end" fill="#cc88cc" font-size="10">Proton Spin Budget</text>
<rect x="230" y="106" width="484.5" height="22" fill="#cc44cc" opacity="0.7" rx="2"/>
<text x="720.5" y="121" fill="#ccc" font-size="10">0.969</text>
<text x="222" y="147" text-anchor="end" fill="#cc88cc" font-size="10">Proton Mass Budget</text>
<rect x="230" y="132" width="464.0" height="22" fill="#cc44cc" opacity="0.7" rx="2"/>
<text x="700.0" y="147" fill="#ccc" font-size="10">0.928</text>
<text x="222" y="173" text-anchor="end" fill="#666666" font-size="10">D-He3 Magnetic</text>
<rect x="230" y="158" width="441.5" height="22" fill="#ff6b35" opacity="0.7" rx="2"/>
<text x="677.5273116655239" y="173" fill="#ccc" font-size="10">0.883</text>
<text x="222" y="199" text-anchor="end" fill="#4488cc" font-size="10">Magnetic Mirror</text>
<rect x="230" y="184" width="429.5" height="22" fill="#ff6b35" opacity="0.7" rx="2"/>
<text x="665.5470874094349" y="199" fill="#ccc" font-size="10">0.859</text>
<text x="222" y="225" text-anchor="end" fill="#4488cc" font-size="10">Compact HF Tokamak (SPARC)</text>
<rect x="230" y="210" width="425.9" height="22" fill="#ff6b35" opacity="0.7" rx="2"/>
<text x="661.8897519215841" y="225" fill="#ccc" font-size="10">0.852</text>
<text x="222" y="251" text-anchor="end" fill="#666666" font-size="10">Stellarator (W7-X)</text>
<rect x="230" y="236" width="402.1" height="22" fill="#ff6b35" opacity="0.7" rx="2"/>
<text x="638.100954671306" y="251" fill="#ccc" font-size="10">0.804</text>
<text x="222" y="277" text-anchor="end" fill="#44cc44" font-size="10">IFR (HF Tokamak)</text>
<rect x="230" y="262" width="396.4" height="22" fill="#ff6b35" opacity="0.7" rx="2"/>
<text x="632.4021555487586" y="277" fill="#ccc" font-size="10">0.793</text>
<text x="222" y="303" text-anchor="end" fill="#4488cc" font-size="10">Conventional Tokamak (ITER)</text>
<rect x="230" y="288" width="388.3" height="22" fill="#ff6b35" opacity="0.7" rx="2"/>
<text x="624.3459042331988" y="303" fill="#ccc" font-size="10">0.777</text>
<text x="222" y="329" text-anchor="end" fill="#44cc44" font-size="10">Krell Level 1 (Boosted)</text>
<rect x="230" y="314" width="360.1" height="22" fill="#ff6b35" opacity="0.7" rx="2"/>
<text x="596.0918567245155" y="329" fill="#ccc" font-size="10">0.720</text>
<text x="222" y="355" text-anchor="end" fill="#666666" font-size="10">FRC (TAE/Helion)</text>
<rect x="230" y="340" width="306.2" height="22" fill="#ff6b35" opacity="0.7" rx="2"/>
<text x="542.249868653553" y="355" fill="#ccc" font-size="10">0.612</text>
<text x="222" y="381" text-anchor="end" fill="#4488cc" font-size="10">Inertial Confinement (NIF)</text>
<rect x="230" y="366" width="290.5" height="22" fill="#ff6b35" opacity="0.7" rx="2"/>
<text x="526.4693203160928" y="381" fill="#ccc" font-size="10">0.581</text>
<text x="222" y="407" text-anchor="end" fill="#44cc44" font-size="10">Spherical Tokamak</text>
<rect x="230" y="392" width="283.0" height="22" fill="#ff6b35" opacity="0.7" rx="2"/>
<text x="518.9835042462332" y="407" fill="#ccc" font-size="10">0.566</text>
<text x="222" y="433" text-anchor="end" fill="#666666" font-size="10">Proton-Boron (p-B11)</text>
<rect x="230" y="418" width="252.7" height="22" fill="#ff6b35" opacity="0.7" rx="2"/>
<text x="488.6673617538181" y="433" fill="#ccc" font-size="10">0.505</text>
<text x="222" y="459" text-anchor="end" fill="#666666" font-size="10">Magnetised Target (GF)</text>
<rect x="230" y="444" width="243.6" height="22" fill="#ff6b35" opacity="0.7" rx="2"/>
<text x="479.564916269743" y="459" fill="#ccc" font-size="10">0.487</text>
<text x="222" y="485" text-anchor="end" fill="#666666" font-size="10">Z-Pinch (Zap Energy)</text>
<rect x="230" y="470" width="200.7" height="22" fill="#ff6b35" opacity="0.7" rx="2"/>
<text x="436.6913861546436" y="485" fill="#ccc" font-size="10">0.401</text>
<text x="222" y="511" text-anchor="end" fill="#666666" font-size="10">Spheromak</text>
<rect x="230" y="496" width="145.4" height="22" fill="#ff6b35" opacity="0.7" rx="2"/>
<text x="381.3912872765436" y="511" fill="#ccc" font-size="10">0.291</text>
<text x="222" y="537" text-anchor="end" fill="#666666" font-size="10">Muon-Catalysed</text>
<rect x="230" y="522" width="119.3" height="22" fill="#ff6b35" opacity="0.7" rx="2"/>
<text x="355.2687267947181" y="537" fill="#ccc" font-size="10">0.239</text>
<text x="222" y="563" text-anchor="end" fill="#cc88cc" font-size="10">CKM u-row</text>
<rect x="230" y="548" width="91.0" height="22" fill="#cc44cc" opacity="0.7" rx="2"/>
<text x="327.0" y="563" fill="#ccc" font-size="10">0.182</text>
<text x="222" y="589" text-anchor="end" fill="#666666" font-size="10">Electrostatic (Fusor)</text>
<rect x="230" y="574" width="64.8" height="22" fill="#ff6b35" opacity="0.7" rx="2"/>
<text x="300.79912458848486" y="589" fill="#ccc" font-size="10">0.130</text>
<text x="222" y="615" text-anchor="end" fill="#cc88cc" font-size="10">Quark Mass Hierarchy</text>
<rect x="230" y="600" width="44.0" height="22" fill="#cc44cc" opacity="0.7" rx="2"/>
<text x="280.0" y="615" fill="#ccc" font-size="10">0.088</text>
<text x="222" y="641" text-anchor="end" fill="#ffcc44" font-size="10">Sun (pp-chain core)</text>
<rect x="230" y="626" width="35.4" height="22" fill="#ff6b35" opacity="0.7" rx="2"/>
<text x="271.36013563545515" y="641" fill="#ccc" font-size="10">0.071</text>
<line x1="230" y1="80" x2="230" y2="652" stroke="#333" stroke-width="0.5"/>
<text x="230" y="664" text-anchor="middle" fill="#666" font-size="10">0.00</text>
<line x1="355.0" y1="80" x2="355.0" y2="652" stroke="#333" stroke-width="0.5"/>
<text x="355.0" y="664" text-anchor="middle" fill="#666" font-size="10">0.25</text>
<line x1="480.0" y1="80" x2="480.0" y2="652" stroke="#333" stroke-width="0.5"/>
<text x="480.0" y="664" text-anchor="middle" fill="#666" font-size="10">0.50</text>
<line x1="605.0" y1="80" x2="605.0" y2="652" stroke="#333" stroke-width="0.5"/>
<text x="605.0" y="664" text-anchor="middle" fill="#666" font-size="10">0.75</text>
<line x1="730.0" y1="80" x2="730.0" y2="652" stroke="#333" stroke-width="0.5"/>
<text x="730.0" y="664" text-anchor="middle" fill="#666" font-size="10">1.00</text>
<text x="405" y="687" text-anchor="middle" fill="#555" font-size="10">EXP-08 — HUF Programme — Peter Higgins / Claude (Anthropic)</text>
</svg>